<svg width="60" height="67" viewBox="0 0 60 67" fill="none" xmlns="http://www.w3.org/2000/svg">
<path d="M59.3405 16.1181L30.4913 0.133959C30.3308 0.046 30.1517 0 29.9698 0C29.788 0 29.6089 0.046 29.4483 0.133959L0.599175 16.1181C0.419922 16.2137 0.269407 16.3578 0.16383 16.5347C0.0582418 16.7118 0.0015978 16.9152 0 17.1228V49.0912C0.0005326 49.2978 0.0555126 49.5003 0.15907 49.6773C0.262639 49.8541 0.410901 49.9989 0.588079 50.096L29.4372 66.0801C29.5978 66.1682 29.7769 66.2142 29.9587 66.2142C30.1406 66.2142 30.3197 66.1682 30.4803 66.0801L59.3294 50.096C59.5066 49.9989 59.6549 49.8541 59.7584 49.6773C59.862 49.5003 59.9169 49.2978 59.9175 49.0912V17.1228C59.918 16.9175 59.8647 16.7157 59.7632 16.539C59.6616 16.3621 59.5156 16.2168 59.3405 16.1181ZM29.9587 2.44025L56.4778 17.1228L48.7107 21.4272L23.1126 6.23079L29.9587 2.44025ZM3.43971 17.1228L11.7949 12.5559L37.3819 27.6953L29.9587 31.8055L3.43971 17.1228ZM20.8158 7.4981L46.4139 22.6945L39.6787 26.4279L14.0917 11.2201L20.8158 7.4981ZM41.1544 28.1976L47.1906 24.8638V33.3811L44.8605 31.0063C44.731 30.8739 44.5718 30.7765 44.397 30.7225C44.2222 30.6687 44.0371 30.66 43.8583 30.6972C43.6794 30.7345 43.5122 30.8166 43.3716 30.9362C43.2309 31.0558 43.1211 31.2093 43.0518 31.383L41.1544 36.087V28.1976ZM2.21917 19.0295L28.8492 33.7921V63.1687L2.21917 48.4062V19.0295ZM31.0683 63.1687V33.7921L38.9353 29.4307V41.8298C38.9481 42.0855 39.0441 42.3293 39.2078 42.5221C39.3715 42.7149 39.5934 42.8454 39.8378 42.8929C40.0824 42.9403 40.3352 42.9018 40.5558 42.7835C40.7765 42.6652 40.9522 42.4742 41.0546 42.2409L44.4499 33.8035L47.4902 36.909C47.6454 37.0701 47.8437 37.1798 48.0597 37.2245C48.2759 37.2691 48.4999 37.2465 48.7035 37.1595C48.907 37.0725 49.0807 36.9252 49.2026 36.7361C49.3244 36.5472 49.3889 36.3251 49.3876 36.0984V23.6307L57.6872 19.0638V48.4062L31.0683 63.1687Z" fill="black"/>
</svg>
