<svg width="50" height="67" viewBox="0 0 50 67" fill="none" xmlns="http://www.w3.org/2000/svg">
<path d="M49.2062 24.1693L44.9643 19.4594L46.2916 13.2483C46.4147 12.6975 46.0863 12.1466 45.5527 11.9676L39.5456 10.012L37.6162 3.96624C37.4383 3.42915 36.891 3.1124 36.3436 3.22257L30.1723 4.55842L25.4925 0.289205C25.082 -0.0964017 24.4389 -0.0964017 24.0284 0.289205L19.3486 4.55842L13.1773 3.22257C12.6299 3.09863 12.0826 3.42915 11.9047 3.96624L9.96164 10.012L3.94086 11.9676C3.4072 12.1466 3.09249 12.6975 3.20196 13.2483L4.52925 19.4594L0.287355 24.1693C-0.0957852 24.5824 -0.0957852 25.2297 0.287355 25.6428L4.52925 30.3528L3.20196 36.5638C3.07881 37.1146 3.4072 37.6655 3.94086 37.8445L9.94796 39.8001L10.1943 40.5851L3.05144 60.5127C2.88724 60.9534 3.02407 61.4492 3.39353 61.7384C3.74929 62.0276 4.25558 62.0689 4.65241 61.821L11.9458 57.3315L14.6962 65.4705C14.8467 65.9112 15.2572 66.2142 15.7224 66.2142H15.7361C16.2014 66.2142 16.6119 65.925 16.7624 65.4843L22.879 48.4625L24.0284 49.5092C24.2336 49.702 24.4936 49.7984 24.7673 49.7984C25.041 49.7984 25.2873 49.702 25.5062 49.5092L26.6556 48.4625L32.7722 65.4843C32.9227 65.925 33.3469 66.2142 33.7985 66.2142H33.8122C34.2774 66.2142 34.6879 65.9112 34.8384 65.4705L37.5888 57.3315L44.8822 61.821C45.279 62.0689 45.7853 62.0276 46.1411 61.7384C46.4968 61.4492 46.6337 60.9534 46.4832 60.5127L39.3266 40.5989L39.5729 39.8139L45.58 37.8583C46.1137 37.6793 46.4284 37.1284 46.319 36.5775L44.9916 30.3665L49.2336 25.6566C49.5893 25.2297 49.5893 24.5962 49.2062 24.1693ZM15.7498 61.7935L13.5604 55.3208C13.451 55.004 13.2047 54.7562 12.8899 54.6322C12.5752 54.5083 12.2331 54.5496 11.9458 54.7286L6.14392 58.2955L11.2753 44.0143L11.8637 45.8459C12.0415 46.383 12.5889 46.6997 13.1362 46.5896L19.3075 45.2537L21.0864 46.8788L15.7498 61.7935ZM43.3359 58.3092L37.5341 54.7424C37.2467 54.5634 36.9046 54.5358 36.5899 54.646C36.2752 54.7562 36.0289 55.004 35.9194 55.3346L33.73 61.8073L28.3661 46.8925L30.1449 45.2675L36.3162 46.6033C36.8636 46.7273 37.4109 46.3968 37.5888 45.8597L38.1772 44.028L43.3359 58.3092ZM42.9802 29.3061C42.7475 29.5678 42.6517 29.9258 42.7202 30.2701L43.9517 36.068L38.3551 37.8859C38.0267 37.996 37.753 38.2577 37.6436 38.602L37.1099 40.2546L35.8373 44.2346L30.0765 42.9951C29.7344 42.9263 29.3787 43.0227 29.1187 43.2568L24.7536 47.2231L20.3885 43.243C20.1833 43.064 19.9233 42.9538 19.6496 42.9538C19.5675 42.9538 19.4991 42.9676 19.417 42.9814L13.6562 44.2208L12.3836 40.2408L11.85 38.5882C11.7405 38.2577 11.4805 37.9823 11.1384 37.8721L5.55552 36.068L6.78705 30.2701C6.85547 29.9258 6.75968 29.5678 6.52706 29.3061L2.5862 24.9129L6.54074 20.5198C6.77337 20.2581 6.86915 19.9001 6.80073 19.5558L5.56921 13.7579L11.1658 11.94C11.4942 11.8299 11.7679 11.5682 11.8773 11.2239L13.6699 5.5913L19.4307 6.83075C19.7728 6.89961 20.1286 6.80321 20.3885 6.56909L24.7536 2.60285L29.1187 6.58286C29.3787 6.81698 29.7344 6.91338 30.0765 6.84452L35.8373 5.60507L37.6436 11.2377C37.753 11.5682 38.013 11.8436 38.3551 11.9538L43.9517 13.7717L42.7202 19.5695C42.6517 19.9138 42.7475 20.2719 42.9802 20.5336L46.921 24.9129L42.9802 29.3061Z" fill="black"/>
<path d="M24.7536 8.93774C15.695 8.93774 8.33325 16.3469 8.33325 25.4638C8.33325 34.5806 15.695 41.9898 24.7536 41.9898C33.8121 41.9898 41.1739 34.5806 41.1739 25.4638C41.1739 16.3469 33.8121 8.93774 24.7536 8.93774ZM24.7536 39.7863C16.9129 39.7863 10.5226 33.3549 10.5226 25.4638C10.5226 17.5726 16.9129 11.1412 24.7536 11.1412C32.5943 11.1412 38.9845 17.5726 38.9845 25.4638C38.9845 33.3549 32.5943 39.7863 24.7536 39.7863Z" fill="black"/>
<path d="M30.8704 17.2835L21.4698 26.6482L18.6373 23.825C17.7889 22.9849 16.4068 22.9849 15.5448 23.825L13.8069 25.5465C13.3964 25.9596 13.1638 26.5105 13.1638 27.1027C13.1638 27.6948 13.3964 28.2457 13.8069 28.6589L19.9235 34.7459C20.3477 35.1729 20.9087 35.3794 21.4698 35.3794C22.0308 35.3794 22.5918 35.1729 23.016 34.7459L35.7007 22.1311C36.1112 21.7179 36.3438 21.1671 36.3438 20.5749C36.3438 19.9827 36.1112 19.4318 35.7007 19.0187L33.9629 17.2972C33.1145 16.4434 31.7188 16.4434 30.8704 17.2835ZM23.9875 30.6833L21.4698 33.176L15.3669 27.1027L17.1047 25.395L20.7035 28.9756C21.1277 29.4025 21.8119 29.4025 22.236 28.9756L32.4166 18.8534L31.6504 18.0684L34.1545 20.5611L23.9875 30.6833Z" fill="black"/>
</svg>
