<svg width="67" height="67" viewBox="0 0 67 67" fill="none" xmlns="http://www.w3.org/2000/svg">
<path d="M22.4128 20.3599L20.9409 29.0855C20.8635 29.4952 20.9017 29.9189 21.051 30.3072C21.2003 30.6956 21.4546 31.0326 21.7843 31.2791C22.1085 31.527 22.4941 31.6774 22.8976 31.7133C23.3012 31.7492 23.7064 31.6691 24.0678 31.4822L32.0241 27.42L39.5667 31.4335C39.9268 31.6317 40.3342 31.7225 40.7424 31.6955C41.1506 31.6684 41.5431 31.5246 41.8751 31.2806C42.2071 31.0365 42.4651 30.702 42.6197 30.3153C42.7743 29.9285 42.8192 29.5052 42.7493 29.0937L41.2773 20.4005L47.4674 14.2178C47.7584 13.9292 47.9644 13.5632 48.0621 13.1611C48.1599 12.7591 48.1454 12.3372 48.0203 11.9431C47.8953 11.5491 47.6647 11.1986 47.3546 10.9315C47.0445 10.6644 46.6674 10.4913 46.266 10.4318L37.6333 9.14818L33.7825 1.21874C33.6 0.849447 33.32 0.539625 32.9741 0.324275C32.6282 0.108926 32.2303 -0.0033687 31.8252 7.6977e-05C31.4215 -0.00185197 31.0252 0.111158 30.6809 0.326424C30.3365 0.541689 30.0578 0.850689 29.8759 1.21874L26.0171 9.14818L17.3844 10.4156C16.979 10.4715 16.5973 10.6431 16.2833 10.9108C15.9692 11.1784 15.7355 11.5312 15.6092 11.9285C15.4828 12.3258 15.4689 12.7514 15.569 13.1564C15.6691 13.5615 15.8792 13.9294 16.1751 14.2178L22.4128 20.3599ZM26.9718 11.4718C27.1591 11.4398 27.3362 11.3627 27.4884 11.2468C27.6406 11.131 27.7636 10.9797 27.847 10.8056L31.8252 2.68114L35.8034 10.8056C35.8891 10.9827 36.0157 11.1359 36.1724 11.252C36.329 11.368 36.5109 11.4435 36.7024 11.4718L45.5181 12.7717L39.153 19.06C39.0129 19.1974 38.9078 19.3677 38.8468 19.556C38.7858 19.7443 38.7708 19.9449 38.8029 20.1405L40.3067 29.0368L32.597 24.9339C32.4283 24.8456 32.2415 24.7994 32.052 24.7994C31.8624 24.7994 31.6756 24.8456 31.5069 24.9339L23.3915 29.0937L24.9032 20.1568C24.9297 19.9617 24.9095 19.763 24.8444 19.5777C24.7793 19.3923 24.6711 19.2258 24.5292 19.0925L18.1641 12.8042L26.9718 11.4718Z" fill="black"/>
<path d="M65.2421 36.1539C64.8424 35.6825 64.3556 35.2963 63.8094 35.0174C63.2633 34.7386 62.6686 34.5726 62.0595 34.529C61.4505 34.4862 60.8394 34.5692 60.2625 34.773C59.6856 34.9768 59.1549 35.2973 58.702 35.7152L47.6824 45.8219C47.6537 45.5974 47.6112 45.3749 47.5551 45.1557C47.3699 44.4518 47.038 43.797 46.5821 43.2361C46.1262 42.6752 45.5571 42.2215 44.9136 41.906C42.8688 41.0285 40.0284 41.4348 37.2835 41.841C35.678 42.162 34.0382 42.2658 32.4062 42.1497C31.6799 41.9636 30.9776 41.6909 30.3137 41.3373C28.2291 40.3867 25.3728 39.0868 20.058 40.2811C17.314 41.0048 14.7934 42.4244 12.7302 44.4083V41.4348C12.7302 41.1115 12.6044 40.8016 12.3806 40.573C12.1568 40.3445 11.8532 40.2161 11.5367 40.2161H1.19345C0.876929 40.2161 0.57337 40.3445 0.349554 40.573C0.125738 40.8016 0 41.1115 0 41.4348V64.9956C0 65.3188 0.125738 65.6288 0.349554 65.8573C0.57337 66.0859 0.876929 66.2143 1.19345 66.2143H11.5367C11.8532 66.2143 12.1568 66.0859 12.3806 65.8573C12.6044 65.6288 12.7302 65.3188 12.7302 64.9956V63.3057C14.3214 63.6876 21.5458 65.4018 26.8845 65.4018C32.454 65.4018 39.2646 64.1019 43.4576 62.2414C51.1832 58.821 63.9054 44.0589 64.9397 42.8647C65.8359 42.0065 66.3688 40.8252 66.4253 39.572C66.4817 38.3187 66.0573 37.0925 65.2421 36.1539ZM10.3433 63.7769H2.38691V42.6534H10.3433V63.7769ZM63.2848 41.1017L63.1734 41.2154C63.0382 41.3698 49.8943 56.7412 42.4869 60.0153C38.5883 61.7458 32.1596 62.9645 26.8845 62.9645C21.3151 62.9645 13.0962 60.8846 13.0166 60.8684C12.9215 60.8566 12.8253 60.8566 12.7302 60.8684V47.8693C13.5974 46.8537 16.6606 43.5552 20.5751 42.6778C25.1262 41.6622 27.3698 42.6778 29.3271 43.5796C30.1715 44.0043 31.0641 44.3209 31.9845 44.522C33.8636 44.703 35.7584 44.6045 37.6097 44.2296C39.925 43.9046 42.5506 43.5309 43.9747 44.1402C44.281 44.3199 44.5487 44.5607 44.7619 44.8482C44.9751 45.1357 45.1295 45.4641 45.2159 45.8138C45.3315 46.2934 45.3333 46.7942 45.2212 47.2747C45.1091 47.7551 44.8864 48.2013 44.5715 48.5761C42.7574 51.0622 31.722 54.7832 27.1948 54.4176C26.8783 54.3928 26.5651 54.4974 26.3241 54.7085C26.0831 54.9195 25.9341 55.2196 25.9099 55.5428C25.8856 55.866 25.9881 56.1858 26.1947 56.4319C26.4014 56.678 26.6953 56.8301 27.0118 56.8549C27.2585 56.8549 27.529 56.8549 27.8074 56.8549C32.7483 56.8549 42.1846 53.8814 45.6376 50.9078L45.7251 50.8591L60.2375 37.535C60.6736 37.1384 61.2456 36.9339 61.8288 36.9663C62.134 36.9852 62.4323 37.0669 62.7057 37.2065C62.9792 37.3462 63.2222 37.5408 63.4201 37.7788C63.8287 38.2401 64.0434 38.8469 64.0181 39.4685C63.9928 40.09 63.7295 40.6765 63.2848 41.1017Z" fill="black"/>
</svg>
