<svg width="66" height="67" viewBox="0 0 66 67" fill="none" xmlns="http://www.w3.org/2000/svg">
<path d="M53.2186 35.6289C52.6051 35.0053 51.7731 34.655 50.9056 34.655C50.0381 34.655 49.2061 35.0053 48.5925 35.6289L45.5074 38.7655C45.5008 38.7655 45.4987 38.7799 45.4932 38.7855L43.9664 40.3299C43.4617 40.8463 42.8616 41.2562 42.2006 41.5358C41.5395 41.8154 40.8306 41.9594 40.1146 41.9594C39.3987 41.9594 38.6897 41.8154 38.0286 41.5358C37.3675 41.2562 36.7675 40.8463 36.2628 40.3299L25.4664 29.3534C24.9584 28.8402 24.5553 28.2298 24.2802 27.5576C24.0051 26.8853 23.8635 26.1644 23.8635 25.4362C23.8635 24.7081 24.0051 23.9872 24.2802 23.3149C24.5553 22.6427 24.9584 22.0323 25.4664 21.5191L26.9866 19.9668L27.0008 19.958L30.086 16.8225C30.3898 16.5136 30.6309 16.1469 30.7953 15.7433C30.9597 15.3397 31.0445 14.9071 31.0445 14.4703C31.0445 14.0334 30.9597 13.6008 30.7953 13.1972C30.6309 12.7936 30.3898 12.427 30.086 12.1181L20.8294 2.70156C20.2062 2.09652 19.3776 1.75891 18.5158 1.75891C17.6541 1.75891 16.8255 2.09652 16.2022 2.70156L13.1182 5.83707L13.1105 5.84927C9.43747 9.59082 7.28362 14.6004 7.07713 19.8825C6.87063 25.1645 8.6266 30.3322 11.996 34.3583V38.2222C11.839 38.2854 11.6874 38.3497 11.5391 38.4151L8.64476 35.4725C8.4364 35.2722 8.16051 35.1607 7.87374 35.1607C7.58697 35.1607 7.31108 35.2722 7.10272 35.4725L2.47881 40.1736C2.27437 40.3815 2.15951 40.6634 2.15951 40.9575C2.15951 41.2515 2.27437 41.5335 2.47881 41.7414L5.37312 44.6839C5.30769 44.8347 5.24552 44.9888 5.18336 45.1485H1.09055C0.801311 45.1485 0.523931 45.2654 0.31941 45.4733C0.1149 45.6811 0 45.9632 0 46.2572V52.9097C0 53.2037 0.1149 53.4858 0.31941 53.6937C0.523931 53.9016 0.801311 54.0184 1.09055 54.0184H5.18336C5.24552 54.1781 5.30769 54.3322 5.37312 54.4819L2.47881 57.4256C2.27437 57.6335 2.15951 57.9154 2.15951 58.2094C2.15951 58.5035 2.27437 58.7854 2.47881 58.9933L7.10272 63.6944C7.30723 63.9023 7.58457 64.019 7.87374 64.019C8.16291 64.019 8.44025 63.9023 8.64476 63.6944L11.5391 60.7518C11.6874 60.8172 11.839 60.8815 11.996 60.9447V65.1058C11.996 65.3998 12.1109 65.6819 12.3154 65.8898C12.5199 66.0977 12.7973 66.2145 13.0865 66.2145H19.6298C19.919 66.2145 20.1965 66.0977 20.4009 65.8898C20.6054 65.6819 20.7204 65.3998 20.7204 65.1058V60.9447C20.8774 60.8815 21.029 60.8172 21.1773 60.7518L24.0716 63.6944C24.28 63.8947 24.5558 64.0063 24.8426 64.0063C25.1294 64.0063 25.4052 63.8947 25.6136 63.6944L30.2376 58.9933C30.442 58.7854 30.5569 58.5035 30.5569 58.2094C30.5569 57.9154 30.442 57.6335 30.2376 57.4256L27.3433 54.4819C27.4087 54.3322 27.4708 54.1781 27.533 54.0184H31.3325C35.2897 57.4497 40.3734 59.2388 45.5703 59.0289C50.7672 58.8191 55.6955 56.6259 59.3726 52.8864L59.3868 52.8775L62.4708 49.7409C62.7747 49.432 63.0158 49.0653 63.1801 48.6618C63.3446 48.2582 63.4293 47.8256 63.4293 47.3887C63.4293 46.9519 63.3446 46.5192 63.1801 46.1157C63.0158 45.7121 62.7747 45.3454 62.4708 45.0365L53.2186 35.6289ZM17.7465 4.26821C17.9542 4.06664 18.2303 3.95417 18.5175 3.95417C18.8046 3.95417 19.0807 4.06664 19.2885 4.26821L28.5418 13.677C28.7459 13.8849 28.8605 14.1666 28.8605 14.4603C28.8605 14.754 28.7459 15.0357 28.5418 15.2436L26.2298 17.593L15.4334 6.61652L17.7465 4.26821ZM30.5353 51.8009H26.762C26.5311 51.8009 26.3061 51.8754 26.1197 52.0137C25.9331 52.152 25.7945 52.3469 25.7238 52.5704C25.5545 53.125 25.3336 53.6618 25.064 54.1736C24.9508 54.3839 24.9077 54.6258 24.9411 54.8631C24.9746 55.1003 25.0828 55.3202 25.2494 55.4897L27.9234 58.2094L24.8426 61.3427L22.1675 58.623C22.0007 58.4533 21.7842 58.3432 21.5506 58.3092C21.317 58.2752 21.0789 58.3192 20.872 58.4345C20.3689 58.7094 19.8407 58.934 19.295 59.1053C19.0754 59.1774 18.8839 59.3183 18.7481 59.508C18.6123 59.6976 18.5392 59.9262 18.5393 60.1608V63.9971H14.1771V60.1608C14.1772 59.9262 14.104 59.6976 13.9683 59.508C13.8325 59.3183 13.641 59.1774 13.4213 59.1053C12.8756 58.934 12.3475 58.7094 11.8444 58.4345C11.6374 58.3192 11.3994 58.2752 11.1658 58.3092C10.9322 58.3432 10.7157 58.4533 10.5489 58.623L7.87374 61.3427L4.7984 58.2094L7.47242 55.4897C7.63909 55.3202 7.74724 55.1003 7.78066 54.8631C7.81409 54.6258 7.77098 54.3839 7.65781 54.1736C7.39006 53.6616 7.17096 53.1248 7.00348 52.5704C6.93227 52.3451 6.79203 52.1489 6.60327 52.0105C6.4145 51.872 6.18712 51.7986 5.95438 51.8009H2.18109V47.366H5.95438C6.18527 47.366 6.4102 47.2915 6.59677 47.1532C6.78334 47.015 6.92192 46.82 6.99258 46.5965C7.16005 46.0422 7.37916 45.5053 7.64691 44.9933C7.76007 44.7831 7.80318 44.5411 7.76976 44.3039C7.73633 44.0666 7.62818 43.8467 7.46151 43.6772L4.7984 40.9575L7.87374 37.8242L10.5489 40.5439C10.7157 40.7137 10.9322 40.8238 11.1658 40.8577C11.3994 40.8917 11.6374 40.8477 11.8444 40.7324C12.3475 40.4575 12.8756 40.2329 13.4213 40.0616C13.641 39.9895 13.8325 39.8486 13.9683 39.6589C14.104 39.4692 14.1772 39.2407 14.1771 39.0061V35.1699H18.5393V39.0061C18.5392 39.2407 18.6123 39.4692 18.7481 39.6589C18.8839 39.8486 19.0754 39.9895 19.295 40.0616C19.8407 40.2329 20.3689 40.4575 20.872 40.7324C21.0789 40.8477 21.317 40.8917 21.5506 40.8577C21.7842 40.8238 22.0007 40.7137 22.1675 40.5439L24.8426 37.8242L27.9234 40.9575L25.2494 43.6772C25.0828 43.8467 24.9746 44.0666 24.9411 44.3039C24.9077 44.5411 24.9508 44.7831 25.064 44.9933C25.3336 45.5051 25.5545 46.0419 25.7238 46.5965C25.7945 46.82 25.9331 47.015 26.1197 47.1532C26.3061 47.2915 26.5311 47.366 26.762 47.366H30.5353V51.8009ZM32.7164 52.3076V46.2572C32.7164 45.9632 32.6014 45.6811 32.397 45.4733C32.1925 45.2654 31.915 45.1485 31.6258 45.1485H27.533C27.4708 44.9888 27.4087 44.8347 27.3433 44.6839L30.2376 41.7414C30.442 41.5335 30.5569 41.2515 30.5569 40.9575C30.5569 40.6634 30.442 40.3815 30.2376 40.1736L25.6136 35.4725C25.4092 35.2647 25.1318 35.1479 24.8426 35.1479C24.5534 35.1479 24.2761 35.2647 24.0716 35.4725L21.1773 38.4151C21.029 38.3497 20.8774 38.2854 20.7204 38.2222V34.0611C20.7204 33.7671 20.6054 33.485 20.4009 33.2771C20.1965 33.0692 19.919 32.9524 19.6298 32.9524H13.6798C10.7747 29.495 9.19799 25.0859 9.24085 20.5388C9.28382 15.9919 10.9434 11.6143 13.9132 8.21421L24.6845 19.1652L23.9211 19.948C23.21 20.6674 22.6456 21.5226 22.2605 22.4645C21.8755 23.4064 21.6772 24.4163 21.6772 25.4362C21.6772 26.4562 21.8755 27.4661 22.2605 28.408C22.6456 29.3499 23.21 30.205 23.9211 30.9245L34.7175 41.901C35.4244 42.6236 36.2648 43.1971 37.1903 43.5887C38.1159 43.9802 39.1083 44.182 40.1108 44.1826C41.1132 44.1831 42.1059 43.9823 43.0318 43.5917C43.9577 43.2011 44.7986 42.6285 45.5063 41.9066L46.2817 41.1238L57.0541 52.0748C53.7087 55.0946 49.4016 56.7817 44.9281 56.8245C40.4547 56.8673 36.117 55.2629 32.7164 52.3076ZM60.9288 48.1731L58.6179 50.5226L47.8215 39.5461L50.1335 37.1977C50.338 36.9899 50.6153 36.8731 50.9045 36.8731C51.1937 36.8731 51.471 36.9899 51.6755 37.1977L60.9288 46.6054C61.1333 46.8133 61.2481 47.0952 61.2481 47.3893C61.2481 47.6833 61.1333 47.9653 60.9288 48.1731Z" fill="black"/>
<path d="M16.358 44.04C15.2796 44.04 14.2253 44.3651 13.3287 44.9742C12.4319 45.5835 11.733 46.4492 11.3203 47.4622C10.9077 48.4752 10.7996 49.5898 11.0101 50.6652C11.2204 51.7406 11.7398 52.7284 12.5024 53.5036C13.2649 54.279 14.2365 54.8069 15.2943 55.0208C16.352 55.2348 17.4483 55.1249 18.4447 54.7054C19.4411 54.2858 20.2926 53.5752 20.8918 52.6635C21.491 51.7519 21.8107 50.6801 21.8107 49.5837C21.809 48.1139 21.234 46.7049 20.2118 45.6656C19.1895 44.6264 17.8036 44.0418 16.358 44.04ZM16.358 52.9099C15.711 52.9099 15.0784 52.7147 14.5404 52.3493C14.0023 51.9839 13.583 51.4643 13.3355 50.8565C13.0878 50.2488 13.023 49.58 13.1492 48.9347C13.2755 48.2896 13.587 47.6968 14.0446 47.2317C14.5021 46.7665 15.0851 46.4497 15.7197 46.3213C16.3544 46.193 17.0122 46.2589 17.6101 46.5107C18.2078 46.7624 18.7188 47.1887 19.0783 47.7357C19.4378 48.2827 19.6296 48.9259 19.6296 49.5837C19.6296 50.4658 19.2849 51.3119 18.6714 51.9356C18.0578 52.5594 17.2258 52.9099 16.358 52.9099Z" fill="black"/>
<path d="M37.2268 0.0103029C36.9402 -0.0296893 36.6497 0.0477227 36.4191 0.225498C36.1887 0.403273 36.0371 0.666865 35.9978 0.958274C35.9584 1.24968 36.0345 1.54504 36.2094 1.77938C36.3842 2.01372 36.6436 2.16783 36.9302 2.20782C43.5076 3.1428 49.6061 6.23142 54.3024 11.0059C58.9985 15.7804 62.0364 21.9807 62.9561 28.6679C62.9918 28.9332 63.1209 29.1763 63.3194 29.3524C63.5178 29.5285 63.7723 29.6256 64.0357 29.6258C64.0853 29.6258 64.1348 29.6225 64.184 29.6158C64.3259 29.5961 64.4626 29.5481 64.5863 29.4746C64.71 29.4011 64.8183 29.3035 64.9049 29.1874C64.9914 29.0715 65.0547 28.9392 65.091 28.7983C65.1273 28.6573 65.1359 28.5105 65.1164 28.3663C64.1308 21.2002 60.8753 14.5558 55.8429 9.43924C50.8104 4.32269 44.2752 1.01262 37.2268 0.0103029Z" fill="black"/>
<path d="M36.8902 8.94263C41.7326 9.81443 46.1945 12.1779 49.6719 15.7133C53.1492 19.2487 55.4739 23.785 56.3314 28.7081C56.3755 28.9652 56.5075 29.1982 56.7039 29.3661C56.9004 29.534 57.1489 29.6262 57.4056 29.6262C57.4688 29.626 57.532 29.6205 57.5942 29.6095C57.8791 29.559 58.1325 29.3953 58.2988 29.1548C58.4651 28.9142 58.5306 28.6163 58.4808 28.3267C57.5463 22.9542 55.0099 18.0037 51.2154 14.1458C47.421 10.2879 42.5518 7.70892 37.2676 6.75842C37.1265 6.73323 36.9819 6.73653 36.8421 6.76814C36.7023 6.79976 36.57 6.85906 36.4527 6.94266C36.3355 7.02626 36.2356 7.13252 36.1587 7.25539C36.0818 7.37825 36.0295 7.5153 36.0047 7.65871C35.9799 7.80213 35.9832 7.9491 36.0143 8.09124C36.0454 8.23338 36.1037 8.36791 36.1859 8.48713C36.2682 8.60635 36.3726 8.70791 36.4935 8.78608C36.6144 8.86425 36.7492 8.91746 36.8902 8.94263Z" fill="black"/>
<path d="M36.8237 15.7134C39.9323 16.4954 42.772 18.1254 45.0363 20.4277C47.3006 22.73 48.9037 25.6171 49.6725 28.7777C49.7024 28.9231 49.7608 29.0608 49.8441 29.1828C49.9273 29.3048 50.0338 29.4086 50.1574 29.4879C50.2808 29.5672 50.4187 29.6205 50.5629 29.6446C50.7069 29.6687 50.8544 29.6631 50.9964 29.6282C51.1383 29.5933 51.2719 29.5298 51.3893 29.4414C51.5066 29.3529 51.6053 29.2415 51.6795 29.1135C51.7536 28.9856 51.8017 28.8438 51.821 28.6967C51.8402 28.5494 51.8302 28.3997 51.7915 28.2566C50.9269 24.7002 49.1233 21.4515 46.5754 18.861C44.0275 16.2707 40.8321 14.4371 37.3341 13.5581C37.1936 13.5205 37.0473 13.5117 36.9036 13.5323C36.7598 13.553 36.6215 13.6026 36.4969 13.6784C36.3722 13.754 36.2637 13.8542 36.1777 13.9732C36.0916 14.092 36.0299 14.2272 35.9959 14.3707C35.9619 14.5142 35.9564 14.6631 35.9799 14.8088C36.0032 14.9545 36.055 15.094 36.1321 15.2191C36.2092 15.3441 36.3101 15.4522 36.4288 15.5372C36.5476 15.6221 36.6818 15.682 36.8237 15.7134Z" fill="black"/>
<path d="M39.2596 30.7349C40.1224 30.7349 40.9658 30.4748 41.6832 29.9875C42.4005 29.5002 42.9596 28.8074 43.2898 27.9971C43.62 27.1867 43.7063 26.295 43.538 25.4347C43.3697 24.5744 42.9542 23.7842 42.3441 23.164C41.7341 22.5437 40.9569 22.1213 40.1107 21.9502C39.2644 21.779 38.3874 21.8668 37.5903 22.2026C36.7933 22.5382 36.1119 23.1066 35.6326 23.836C35.1533 24.5653 34.8975 25.4228 34.8975 26.2999C34.8975 27.4762 35.357 28.6042 36.1751 29.4359C36.9932 30.2676 38.1027 30.7349 39.2596 30.7349ZM39.2596 24.0824C39.6911 24.0824 40.1127 24.2125 40.4713 24.4562C40.83 24.6998 41.1096 25.0462 41.2748 25.4513C41.4398 25.8565 41.4829 26.3024 41.3989 26.7325C41.3147 27.1626 41.1069 27.5578 40.8019 27.8679C40.4969 28.178 40.1082 28.3892 39.6852 28.4748C39.262 28.5603 38.8235 28.5164 38.4249 28.3486C38.0265 28.1808 37.6858 27.8965 37.4462 27.5318C37.2065 27.1672 37.0786 26.7385 37.0786 26.2999C37.0786 25.7118 37.3083 25.1478 37.7174 24.7319C38.1265 24.3161 38.6812 24.0824 39.2596 24.0824Z" fill="black"/>
</svg>
